<?xml version="1.0" standalone="no"?>
<!DOCTYPE svg PUBLIC "-//W3C//DTD SVG 20010904//EN"
 "http://www.w3.org/TR/2001/REC-SVG-20010904/DTD/svg10.dtd">
<svg version="1.0" xmlns="http://www.w3.org/2000/svg"
 width="512.000000pt" height="512.000000pt" viewBox="0 0 512.000000 512.000000"
 preserveAspectRatio="xMidYMid meet">

<g transform="translate(0.000000,512.000000) scale(0.100000,-0.100000)"
fill="#ffffff" stroke="none">
<path d="M1820 5104 c-933 -136 -1672 -879 -1805 -1816 -19 -136 -19 -460 0
-596 134 -944 873 -1681 1821 -1818 157 -23 438 -22 589 0 368 56 665 177 964
391 l93 67 647 -645 c355 -355 660 -652 676 -660 50 -25 93 -29 147 -16 133
31 202 181 141 304 -8 16 -305 321 -660 676 l-645 647 67 93 c212 296 338 607
390 964 24 160 24 429 1 589 -136 948 -874 1687 -1818 1821 -131 19 -477 18
-608 -1z m555 -429 c200 -30 329 -71 520 -166 176 -87 300 -175 435 -309 314
-313 487 -700 507 -1140 13 -282 -50 -577 -177 -831 -140 -279 -356 -519 -614
-683 -471 -299 -1077 -347 -1588 -126 -516 224 -885 682 -999 1238 -27 129
-36 388 -19 530 88 760 686 1376 1442 1486 128 19 371 19 493 1z"/>
</g>
</svg>
